<svg width="74" height="74" viewBox="0 0 74 74" fill="none" xmlns="http://www.w3.org/2000/svg">
<g clip-path="url(#clip0_108_7)">
<path d="M46.25 37H46.2804" stroke="#97B4FF" stroke-width="5" stroke-linecap="round" stroke-linejoin="round"/>
<path d="M37 37H37.0304" stroke="#97B4FF" stroke-width="5" stroke-linecap="round" stroke-linejoin="round"/>
<path d="M27.75 37H27.7804" stroke="#97B4FF" stroke-width="5" stroke-linecap="round" stroke-linejoin="round"/>
<path d="M18.5 58.5834C16.8645 58.5834 15.296 57.9337 14.1395 56.7772C12.983 55.6208 12.3333 54.0523 12.3333 52.4167V40.0834L9.25 37.0001L12.3333 33.9167V21.5834C12.3333 19.9479 12.983 18.3794 14.1395 17.2229C15.296 16.0664 16.8645 15.4167 18.5 15.4167" stroke="#97B4FF" stroke-width="5" stroke-linecap="round" stroke-linejoin="round"/>
<path d="M55.5 58.5834C57.1355 58.5834 58.704 57.9337 59.8605 56.7772C61.017 55.6208 61.6667 54.0523 61.6667 52.4167V40.0834L64.75 37.0001L61.6667 33.9167V21.5834C61.6667 19.9479 61.017 18.3794 59.8605 17.2229C58.704 16.0664 57.1355 15.4167 55.5 15.4167" stroke="#97B4FF" stroke-width="5" stroke-linecap="round" stroke-linejoin="round"/>
</g>
<defs>
<clipPath id="clip0_108_7">
<rect width="74" height="74" fill="white"/>
</clipPath>
</defs>
</svg>
